<svg width="64" height="64" viewBox="0 0 64 64" fill="none" xmlns="http://www.w3.org/2000/svg">
<path fill-rule="evenodd" clip-rule="evenodd" d="M23.0635 16.1119C23.7715 16.0379 24.4898 16 25.2166 16C34.9379 16 43.1322 22.7795 45.642 32.0277C45.8429 32.0147 46.045 32.0062 46.2482 32.0024C46.1656 32.0009 46.0829 32.0002 45.9999 32.0002L45.9329 32.0004L45.9328 32H48.9999H49.1204V31.999C52.9308 31.9347 55.9999 28.8258 55.9999 25C55.9999 21.134 52.8659 18 48.9999 18C47.7019 18 46.4864 18.3533 45.4443 18.969C45.4412 17.8515 45.2715 16.7733 44.9587 15.7577C43.4003 11.2429 39.1134 8 34.069 8C28.8937 8 24.5156 11.4135 23.0635 16.1119ZM54.3533 34.6117C57.7723 37.1517 60 41.3061 60 46C60 53.7319 53.9552 59.9999 46.4986 59.9999C46.3317 59.9999 46.1655 59.9968 46 59.9906V60H25.5343V59.9976C25.4285 59.9992 25.3226 60 25.2166 60C13.499 60 4 50.1503 4 38C4 28.1887 10.1939 19.8774 18.7482 17.0411C19.9338 9.64812 26.3418 4 34.069 4C40.6987 4 46.3574 8.15768 48.5798 14.0079C48.7192 14.0026 48.8592 14 48.9999 14C55.0751 14 59.9999 18.9249 59.9999 25C59.9999 29.1318 57.7219 32.7315 54.3533 34.6117ZM46 56H25.5343H25.3041V55.9998L25.2166 56C15.8436 56 8 48.0791 8 38C8 27.9209 15.8436 20 25.2166 20C33.1677 20 40.0183 25.7001 41.9137 33.5823L41.9197 33.5798C42.1874 34.6735 42.3581 35.8073 42.4217 36.971C43.6678 36.3463 45.0544 36 46.4986 36C51.6106 36 56 40.3392 56 46C56 51.6211 51.6719 55.9391 46.6059 55.9993V56H46Z" fill="#111827"/>
</svg>
