<svg width="32" height="32" viewBox="0 0 32 32" fill="none" xmlns="http://www.w3.org/2000/svg">
<path fill-rule="evenodd" clip-rule="evenodd" d="M12.1701 9.19081C12.4735 9.1591 12.7813 9.14286 13.0928 9.14286C17.2591 9.14286 20.7709 12.0484 21.8466 16.0119C21.9327 16.0063 22.0193 16.0027 22.1064 16.001C22.071 16.0004 22.0355 16.0001 22 16.0001L21.9712 16.0002L21.9712 16H23.2857H23.3373V15.9996C24.9703 15.972 26.2857 14.6396 26.2857 13C26.2857 11.3431 24.9425 10 23.2857 10C22.7294 10 22.2084 10.1514 21.7618 10.4153C21.7605 9.93638 21.6878 9.47426 21.5537 9.03902C20.8858 7.10411 19.0486 5.71429 16.8867 5.71429C14.6687 5.71429 12.7924 7.17722 12.1701 9.19081ZM25.58 17.1193C27.0453 18.2079 28 19.9883 28 22C28 25.3137 25.4094 28 22.2137 28C22.1421 28 22.0709 27.9986 22 27.996V28H13.229V27.999C13.1837 27.9997 13.1383 28 13.0928 28C8.07099 28 4 23.7787 4 18.5714C4 14.3666 6.65451 10.8046 10.3207 9.58906C10.8288 6.42062 13.5751 4 16.8867 4C19.728 4 22.1532 5.78186 23.1056 8.28909C23.1654 8.28685 23.2254 8.28571 23.2857 8.28571C25.8893 8.28571 28 10.3964 28 13C28 14.7708 27.0237 16.3135 25.58 17.1193ZM22 26.2857H13.229H13.1303V26.2856L13.0928 26.2857C9.07582 26.2857 5.71429 22.891 5.71429 18.5714C5.71429 14.2518 9.07582 10.8571 13.0928 10.8571C16.5005 10.8571 19.4364 13.3 20.2487 16.6781L20.2513 16.6771C20.366 17.1458 20.4392 17.6317 20.4664 18.1304C21.0005 17.8627 21.5947 17.7143 22.2137 17.7143C24.4045 17.7143 26.2857 19.5739 26.2857 22C26.2857 24.409 24.4308 26.2596 22.2597 26.2854V26.2857H22Z" fill="#63A6A5"/>
</svg>
